<svg width="31" height="21" viewBox="0 0 31 21" fill="none" xmlns="http://www.w3.org/2000/svg">
<path opacity="0.6" d="M14.952 10.256C14.952 13.5227 14.3267 16.0333 13.076 17.788C11.844 19.524 10.136 20.392 7.952 20.392C5.768 20.392 4.05067 19.524 2.8 17.788C1.568 16.0333 0.952 13.5227 0.952 10.256C0.952 8.632 1.11067 7.19467 1.428 5.944C1.764 4.69333 2.24 3.63867 2.856 2.78C3.472 1.92133 4.20933 1.268 5.068 0.819998C5.92667 0.371998 6.888 0.147999 7.952 0.147999C10.136 0.147999 11.844 1.02533 13.076 2.78C14.3267 4.516 14.952 7.008 14.952 10.256ZM10.696 10.256C10.696 9.28533 10.6493 8.408 10.556 7.624C10.4627 6.82133 10.3133 6.13067 10.108 5.552C9.90267 4.97333 9.62267 4.52533 9.268 4.208C8.91333 3.89067 8.47467 3.732 7.952 3.732C7.42933 3.732 6.99067 3.89067 6.636 4.208C6.3 4.52533 6.02 4.97333 5.796 5.552C5.59067 6.13067 5.44133 6.82133 5.348 7.624C5.25467 8.408 5.208 9.28533 5.208 10.256C5.208 11.2267 5.25467 12.1133 5.348 12.916C5.44133 13.7187 5.59067 14.4093 5.796 14.988C6.02 15.5667 6.3 16.0147 6.636 16.332C6.99067 16.6493 7.42933 16.808 7.952 16.808C8.47467 16.808 8.91333 16.6493 9.268 16.332C9.62267 16.0147 9.90267 15.5667 10.108 14.988C10.3133 14.4093 10.4627 13.7187 10.556 12.916C10.6493 12.1133 10.696 11.2267 10.696 10.256ZM29.8021 5.692C29.8021 6.40133 29.6621 7.08267 29.3821 7.736C29.1021 8.38933 28.7381 9.024 28.2901 9.64C27.8421 10.2373 27.3381 10.816 26.7781 11.376C26.2181 11.936 25.6674 12.468 25.1261 12.972C24.8461 13.2333 24.5381 13.532 24.2021 13.868C23.8847 14.1853 23.5767 14.512 23.2781 14.848C22.9794 15.184 22.7087 15.5013 22.4661 15.8C22.2421 16.08 22.1021 16.3133 22.0461 16.5H30.3901V20H17.4541C17.4167 19.7947 17.3981 19.5333 17.3981 19.216C17.3981 18.8987 17.3981 18.6747 17.3981 18.544C17.3981 17.648 17.5381 16.8267 17.8181 16.08C18.1167 15.3333 18.4994 14.6427 18.9661 14.008C19.4327 13.3547 19.9554 12.748 20.5341 12.188C21.1314 11.628 21.7194 11.068 22.2981 10.508C22.7461 10.0787 23.1661 9.67733 23.5581 9.304C23.9501 8.912 24.2954 8.53867 24.5941 8.184C24.8927 7.81067 25.1261 7.44667 25.2941 7.092C25.4621 6.71867 25.5461 6.34533 25.5461 5.972C25.5461 5.15067 25.3127 4.572 24.8461 4.236C24.3794 3.9 23.8007 3.732 23.1101 3.732C22.6061 3.732 22.1301 3.816 21.6821 3.984C21.2527 4.13333 20.8514 4.32 20.4781 4.544C20.1234 4.74933 19.8154 4.964 19.5541 5.188C19.2927 5.39333 19.0967 5.56133 18.9661 5.692L16.8941 2.78C17.7154 2.01467 18.6674 1.38933 19.7501 0.903999C20.8514 0.399999 22.0274 0.147999 23.2781 0.147999C24.4167 0.147999 25.3967 0.278665 26.2181 0.539999C27.0394 0.801332 27.7114 1.17467 28.2341 1.66C28.7754 2.12667 29.1674 2.70533 29.4101 3.396C29.6714 4.068 29.8021 4.83333 29.8021 5.692Z" fill="#424551"/>
</svg>
