<svg width="32" height="21" viewBox="0 0 32 21" fill="none" xmlns="http://www.w3.org/2000/svg">
<path opacity="0.6" d="M14.952 10.256C14.952 13.5227 14.3267 16.0333 13.076 17.788C11.844 19.524 10.136 20.392 7.952 20.392C5.768 20.392 4.05067 19.524 2.8 17.788C1.568 16.0333 0.952 13.5227 0.952 10.256C0.952 8.632 1.11067 7.19467 1.428 5.944C1.764 4.69333 2.24 3.63867 2.856 2.78C3.472 1.92133 4.20933 1.268 5.068 0.819998C5.92667 0.371998 6.888 0.147999 7.952 0.147999C10.136 0.147999 11.844 1.02533 13.076 2.78C14.3267 4.516 14.952 7.008 14.952 10.256ZM10.696 10.256C10.696 9.28533 10.6493 8.408 10.556 7.624C10.4627 6.82133 10.3133 6.13067 10.108 5.552C9.90267 4.97333 9.62267 4.52533 9.268 4.208C8.91333 3.89067 8.47467 3.732 7.952 3.732C7.42933 3.732 6.99067 3.89067 6.636 4.208C6.3 4.52533 6.02 4.97333 5.796 5.552C5.59067 6.13067 5.44133 6.82133 5.348 7.624C5.25467 8.408 5.208 9.28533 5.208 10.256C5.208 11.2267 5.25467 12.1133 5.348 12.916C5.44133 13.7187 5.59067 14.4093 5.796 14.988C6.02 15.5667 6.3 16.0147 6.636 16.332C6.99067 16.6493 7.42933 16.808 7.952 16.808C8.47467 16.808 8.91333 16.6493 9.268 16.332C9.62267 16.0147 9.90267 15.5667 10.108 14.988C10.3133 14.4093 10.4627 13.7187 10.556 12.916C10.6493 12.1133 10.696 11.2267 10.696 10.256ZM24.8461 5.692C24.1181 6.644 23.3434 7.68 22.5221 8.8C21.7007 9.92 21.0101 11.068 20.4501 12.244H24.8461V5.692ZM28.9341 0.595999V12.244H31.0061V15.66H28.9341V20H24.8461V15.66H16.4741V12.608C16.8847 11.7867 17.3981 10.8627 18.0141 9.836C18.6301 8.79067 19.3114 7.72667 20.0581 6.644C20.8234 5.54267 21.6261 4.46933 22.4661 3.424C23.3061 2.37867 24.1461 1.436 24.9861 0.595999H28.9341Z" fill="#424551"/>
</svg>
