<svg width="17" height="16" viewBox="0 0 17 16" fill="none" xmlns="http://www.w3.org/2000/svg">
<g id="filter-2">
<g id="Vector">
<path fill-rule="evenodd" clip-rule="evenodd" d="M12.166 6.33301C12.5342 6.33301 12.8327 6.63148 12.8327 6.99967V14.4997C12.8327 14.8679 12.5342 15.1663 12.166 15.1663C11.7978 15.1663 11.4993 14.8679 11.4993 14.4997V6.99967C11.4993 6.63148 11.7978 6.33301 12.166 6.33301Z" fill="white"/>
<path fill-rule="evenodd" clip-rule="evenodd" d="M12.166 0.833008C12.5342 0.833008 12.8327 1.13148 12.8327 1.49967V3.49967C12.8327 3.86786 12.5342 4.16634 12.166 4.16634C11.7978 4.16634 11.4993 3.86786 11.4993 3.49967V1.49967C11.4993 1.13148 11.7978 0.833008 12.166 0.833008Z" fill="white"/>
<path fill-rule="evenodd" clip-rule="evenodd" d="M8.49935 4.83301C8.49935 3.72844 9.39478 2.83301 10.4993 2.83301H13.8327C14.9373 2.83301 15.8327 3.72844 15.8327 4.83301V5.66634C15.8327 6.77091 14.9373 7.66634 13.8327 7.66634H10.4993C9.39478 7.66634 8.49935 6.77091 8.49935 5.66634V4.83301ZM10.4993 4.16634C10.1312 4.16634 9.83268 4.46482 9.83268 4.83301V5.66634C9.83268 6.03453 10.1312 6.33301 10.4993 6.33301H13.8327C14.2009 6.33301 14.4993 6.03453 14.4993 5.66634V4.83301C14.4993 4.46482 14.2009 4.16634 13.8327 4.16634H10.4993Z" fill="white"/>
<path fill-rule="evenodd" clip-rule="evenodd" d="M4.83268 11.833C5.20087 11.833 5.49935 12.1315 5.49935 12.4997V14.4997C5.49935 14.8679 5.20087 15.1663 4.83268 15.1663C4.46449 15.1663 4.16602 14.8679 4.16602 14.4997V12.4997C4.16602 12.1315 4.46449 11.833 4.83268 11.833Z" fill="white"/>
<path fill-rule="evenodd" clip-rule="evenodd" d="M4.83268 0.833008C5.20087 0.833008 5.49935 1.13148 5.49935 1.49967V8.99967C5.49935 9.36786 5.20087 9.66634 4.83268 9.66634C4.46449 9.66634 4.16602 9.36786 4.16602 8.99967V1.49967C4.16602 1.13148 4.46449 0.833008 4.83268 0.833008Z" fill="white"/>
<path fill-rule="evenodd" clip-rule="evenodd" d="M1.16602 10.333C1.16602 9.22844 2.06145 8.33301 3.16602 8.33301H6.49935C7.60392 8.33301 8.49935 9.22844 8.49935 10.333V11.1663C8.49935 12.2709 7.60392 13.1663 6.49935 13.1663H3.16602C2.06145 13.1663 1.16602 12.2709 1.16602 11.1663V10.333ZM3.16602 9.66634C2.79783 9.66634 2.49935 9.96482 2.49935 10.333V11.1663C2.49935 11.5345 2.79783 11.833 3.16602 11.833H6.49935C6.86754 11.833 7.16602 11.5345 7.16602 11.1663V10.333C7.16602 9.96482 6.86754 9.66634 6.49935 9.66634H3.16602Z" fill="white"/>
</g>
</g>
</svg>
