<svg width="32" height="32" viewBox="0 0 32 32" fill="none" xmlns="http://www.w3.org/2000/svg">
<g id="Play">
<g id="Vector">
<path fill-rule="evenodd" clip-rule="evenodd" d="M21.4224 13.881C22.8189 14.9483 22.8189 17.0511 21.4224 18.1184L15.3158 22.7857C13.561 24.1269 11.0298 22.8756 11.0298 20.667V11.3325C11.0298 9.12385 13.561 7.87259 15.3158 9.21378L21.4224 13.881ZM19.8031 15.9997L13.6965 11.3325L13.6965 20.667L19.8031 15.9997Z" fill="white"/>
<path fill-rule="evenodd" clip-rule="evenodd" d="M15.9987 3.99967C9.37128 3.99967 3.9987 9.37226 3.9987 15.9997C3.9987 22.6271 9.37128 27.9997 15.9987 27.9997C22.6261 27.9997 27.9987 22.6271 27.9987 15.9997C27.9987 9.37226 22.6261 3.99967 15.9987 3.99967ZM1.33203 15.9997C1.33203 7.8995 7.89852 1.33301 15.9987 1.33301C24.0989 1.33301 30.6654 7.8995 30.6654 15.9997C30.6654 24.0998 24.0989 30.6663 15.9987 30.6663C7.89852 30.6663 1.33203 24.0998 1.33203 15.9997Z" fill="white"/>
</g>
</g>
</svg>
