<svg width="31" height="21" viewBox="0 0 31 21" fill="none" xmlns="http://www.w3.org/2000/svg">
<path opacity="0.6" d="M14.952 10.256C14.952 13.5227 14.3267 16.0333 13.076 17.788C11.844 19.524 10.136 20.392 7.952 20.392C5.768 20.392 4.05067 19.524 2.8 17.788C1.568 16.0333 0.952 13.5227 0.952 10.256C0.952 8.632 1.11067 7.19467 1.428 5.944C1.764 4.69333 2.24 3.63867 2.856 2.78C3.472 1.92133 4.20933 1.268 5.068 0.819998C5.92667 0.371998 6.888 0.147999 7.952 0.147999C10.136 0.147999 11.844 1.02533 13.076 2.78C14.3267 4.516 14.952 7.008 14.952 10.256ZM10.696 10.256C10.696 9.28533 10.6493 8.408 10.556 7.624C10.4627 6.82133 10.3133 6.13067 10.108 5.552C9.90267 4.97333 9.62267 4.52533 9.268 4.208C8.91333 3.89067 8.47467 3.732 7.952 3.732C7.42933 3.732 6.99067 3.89067 6.636 4.208C6.3 4.52533 6.02 4.97333 5.796 5.552C5.59067 6.13067 5.44133 6.82133 5.348 7.624C5.25467 8.408 5.208 9.28533 5.208 10.256C5.208 11.2267 5.25467 12.1133 5.348 12.916C5.44133 13.7187 5.59067 14.4093 5.796 14.988C6.02 15.5667 6.3 16.0147 6.636 16.332C6.99067 16.6493 7.42933 16.808 7.952 16.808C8.47467 16.808 8.91333 16.6493 9.268 16.332C9.62267 16.0147 9.90267 15.5667 10.108 14.988C10.3133 14.4093 10.4627 13.7187 10.556 12.916C10.6493 12.1133 10.696 11.2267 10.696 10.256ZM22.2981 20.42C21.7941 20.42 21.2621 20.3827 20.7021 20.308C20.1421 20.252 19.6007 20.168 19.0781 20.056C18.5554 19.944 18.0794 19.8227 17.6501 19.692C17.2207 19.5613 16.8847 19.44 16.6421 19.328L17.4541 15.856C17.9394 16.0613 18.5554 16.2853 19.3021 16.528C20.0674 16.752 21.0101 16.864 22.1301 16.864C23.4181 16.864 24.3607 16.6213 24.9581 16.136C25.5554 15.6507 25.8541 14.9973 25.8541 14.176C25.8541 13.672 25.7421 13.252 25.5181 12.916C25.3127 12.5613 25.0234 12.2813 24.6501 12.076C24.2767 11.852 23.8287 11.7027 23.3061 11.628C22.8021 11.5347 22.2607 11.488 21.6821 11.488H20.0581V8.128H21.9061C22.3167 8.128 22.7087 8.09067 23.0821 8.016C23.4741 7.94133 23.8194 7.82 24.1181 7.652C24.4167 7.46533 24.6501 7.22267 24.8181 6.924C25.0047 6.60667 25.0981 6.21467 25.0981 5.748C25.0981 5.39333 25.0234 5.08533 24.8741 4.824C24.7247 4.56267 24.5287 4.348 24.2861 4.18C24.0621 4.012 23.7914 3.89067 23.4741 3.816C23.1754 3.72267 22.8674 3.676 22.5501 3.676C21.7474 3.676 21.0007 3.79733 20.3101 4.04C19.6381 4.28267 19.0221 4.58133 18.4621 4.936L16.9781 1.884C17.2767 1.69733 17.6221 1.50133 18.0141 1.296C18.4247 1.09067 18.8727 0.903999 19.3581 0.735999C19.8434 0.567999 20.3567 0.427999 20.8981 0.316C21.4581 0.203999 22.0461 0.147999 22.6621 0.147999C23.8007 0.147999 24.7807 0.287999 25.6021 0.568C26.4421 0.829333 27.1327 1.212 27.6741 1.716C28.2154 2.20133 28.6167 2.78 28.8781 3.452C29.1394 4.10533 29.2701 4.824 29.2701 5.608C29.2701 6.37333 29.0554 7.12 28.6261 7.848C28.1967 8.55733 27.6181 9.09867 26.8901 9.472C27.8981 9.88267 28.6727 10.4987 29.2141 11.32C29.7741 12.1227 30.0541 13.0933 30.0541 14.232C30.0541 15.128 29.9047 15.9587 29.6061 16.724C29.3074 17.4707 28.8407 18.124 28.2061 18.684C27.5714 19.2253 26.7594 19.6547 25.7701 19.972C24.7994 20.2707 23.6421 20.42 22.2981 20.42Z" fill="#424551"/>
</svg>
